<?xml version="1.0" standalone="no"?>
<!DOCTYPE svg PUBLIC "-//W3C//DTD SVG 20010904//EN"
 "http://www.w3.org/TR/2001/REC-SVG-20010904/DTD/svg10.dtd">
<svg version="1.0" xmlns="http://www.w3.org/2000/svg"
 width="260.000000pt" height="260.000000pt" viewBox="0 0 260.000000 260.000000"
 preserveAspectRatio="xMidYMid meet">
<metadata>
Created by potrace 1.11, written by Peter Selinger 2001-2013
</metadata>
<g transform="translate(0.000000,260.000000) scale(0.100000,-0.100000)"
fill="#000000" stroke="none">
<path d="M699 2397 c-1 -29 -1 -2110 0 -2120 1 -4 171 -7 379 -7 334 1 390 3
474 20 164 34 258 80 353 175 82 82 118 144 146 252 23 90 27 230 9 319 -36
174 -153 302 -330 360 -61 21 -63 23 -39 32 46 18 118 73 152 115 46 58 60 83
87 152 21 52 24 77 24 195 0 114 -4 144 -22 195 -64 174 -205 273 -452 320
-19 4 -203 8 -407 10 l-373 4 -1 -22z m771 -222 c139 -43 212 -115 235 -230 7
-36 7 -141 1 -172 -27 -128 -133 -221 -291 -253 -56 -12 -425 -22 -452 -12
-10 3 -13 82 -13 347 l0 343 233 -3 c184 -2 243 -7 287 -20z m-70 -889 c78 -7
114 -13 160 -28 204 -64 297 -226 255 -442 -16 -85 -37 -127 -86 -181 -63 -69
-157 -116 -257 -131 -21 -3 -43 -7 -50 -9 -11 -4 -274 -7 -424 -6 l-48 1 0
399 0 400 33 3 c49 5 343 0 417 -6z"/>
</g>
</svg>
